<svg width="36" height="36" viewBox="0 0 36 36" fill="none" xmlns="http://www.w3.org/2000/svg">
<path d="M1 5C1 2.79086 2.79086 1 5 1H16V35H5C2.79086 35 1 33.2091 1 31V5Z" fill="#90CAF9"/>
<path fill-rule="evenodd" clip-rule="evenodd" d="M16.5 1.94444V1H16H15.5V1.94444H16.5ZM16.5 5.72222V3.83333H15.5V5.72222H16.5ZM16.5 9.5V7.61111H15.5V9.5H16.5ZM16.5 13.2778V11.3889H15.5V13.2778H16.5ZM16.5 17.0556V15.1667H15.5V17.0556H16.5ZM16.5 20.8333V18.9444H15.5V20.8333H16.5ZM16.5 24.6111V22.7222H15.5V24.6111H16.5ZM16.5 28.3889V26.5H15.5V28.3889H16.5ZM16.5 32.1667V30.2778H15.5V32.1667H16.5ZM15.5 35V34.0556H16.5V35H16H15.5Z" fill="#2196F3"/>
<rect x="1" y="1" width="34" height="34" rx="4" stroke="#2196F3" stroke-dasharray="2 2"/>
</svg>
